# xmcd CD database file
#
# Track frame offsets:
#	150
#	13749
#	28934
#	46431
#	57893
#	72090
#	83950
#	108373
#	127478
#	182680
#	198086
#	211433
#	282461
#
# Disc length: 4443 seconds
#
# Revision: 0
# Processed by: cddbd v1.5.1PL0 Copyright (c) Steve Scherf et al.
# Submitted via: CDex 1.51
#
DISCID=c411590d
DTITLE=Charie Parker - "THE QUINTETS, 1945-1951"and"COLLABORATIONS" DISC TWO
DYEAR=2002
DGENRE=Jazz
TTITLE0=Shaw 'Nuff
TTITLE1=Lover Man
TTITLE2=Congo Blues
TTITLE3=The Street Beat
TTITLE4=Slim's Jam
TTITLE5=Milestones
TTITLE6=Ko Ko
TTITLE7=Victory Ball
TTITLE8=Lester Leaps In
TTITLE9=My Melancholy Baby
TTITLE10=Ballade
TTITLE11=Scrapple From The Apple
TTITLE12=Back Home In Indiana - Donna Lee
EXTD=YEAR: 2002
EXTT0=
EXTT1=
EXTT2=
EXTT3=
EXTT4=
EXTT5=
EXTT6=
EXTT7=
EXTT8=
EXTT9=
EXTT10=
EXTT11=
EXTT12=
PLAYORDER=
